<svg xmlns="http://www.w3.org/2000/svg" viewBox="0 -20 350 254.098" style="width:350px;height:254.098px;position:absolute;top:50%;left:50%;transform:translate(-50%,-50%) scale(.456);z-index:0;cursor:pointer"><g fill="#111"><path xmlns="http://www.w3.org/2000/svg" d="M84.233 139.87zm5.092 6.478a97.255 97.255 0 0 0 6.293 6.71c7.423 7.307 16.275 13.448 25.771 18.092 3.5 1.639 6.727 3.336 10.508 4.797.945.363 1.91.752 2.924 1.102a139.4 139.4 0 0 0 3.193.97c1.103.344 2.279.589 3.508.843 1.23.247 2.508.53 3.88.67a97.957 97.957 0 0 1-19.791-6.43 100.741 100.741 0 0 1-18.116-10.567c-11.324-8.296-21.01-18.948-28.086-31.124-.292-.364-.735-1.057-1.266-1.94l-.855-1.448-.862-1.665c-.573-1.156-1.234-2.328-1.74-3.464a76.529 76.529 0 0 0-1.423-2.95c2.199 5.476 4.737 10.267 7.579 14.822a100.355 100.355 0 0 0 4.154 6.117c-.207-.278-.421-.549-.626-.828a102.007 102.007 0 0 0 4.938 6.271l.017.022zm-4.958-6.294-.134-.183.134.183zM66.434 93.849l-.519-4.16c.275 2.54.594 5.377 1.177 8.218l-.351-2.018a25.725 25.725 0 0 1-.307-2.04zm90.696 85.389c7.142.723 14.632.507 21.968-.654 7.34-1.156 14.52-3.207 21.194-5.85-12.293 4.835-25.34 6.985-38.103 6.625-1.708-.027-3.391 0-5.059-.121z"/><path xmlns="http://www.w3.org/2000/svg" d="m114.844 164.628-.278-.177c.094.059.185.12.278.177zm-.278-.177zm-2.699-1.79zm13.339 7.676a90.01 90.01 0 0 0 18.384 6.244c-10.402-2.373-20.19-6.559-28.746-11.953 3.286 2.09 6.74 4.025 10.362 5.709zm129.828-75.358c.105-1.696.318-3.476.371-4.324.638-5.444.827-10.093.8-14.757-.118-.84-.456-2.415-.59-4.206-.164-1.795-.406-3.553-.61-5.287-.31-1.718-.578-3.42-.917-5.089 2.443 12.473 2.402 24.993.155 36.806a101.962 101.962 0 0 1 .791-3.143z"/><path xmlns="http://www.w3.org/2000/svg" d="M65.953 69.628c.91-7.408 2.848-14.629 4.691-19.44l-.746 3.522c.46-1.032 1.205-3.43 2.22-5.966l.732-1.935.808-1.876c.537-1.214.988-2.365 1.463-3.247-.325.827-.638 1.72-1.016 2.615-.37.899-.786 1.811-1.182 2.73l1.625-3.66a120.099 120.099 0 0 0-4.229 12.568c-1.216 4.673-2.178 9.583-2.696 13.992-.15 1.099-.203 2.173-.3 3.197-.072 1.024-.197 2.001-.207 2.924-.045 1.846-.107 3.462-.076 4.754.113 2.587.269 3.876.493 3.156.441-1.431.433-8.791 1.972-18.002.824-4.59 2.006-9.626 3.61-14.56 1.592-4.937 3.68-9.724 5.84-13.948l-.635 1.388-.585 1.429-1.199 2.889-1.099 2.984-.56 1.506c-.164.51-.33 1.024-.494 1.54-1.417 4.086-2.477 8.39-3.4 12.73l-.6 3.276c-.22 1.088-.314 2.196-.477 3.293-.342 2.19-.466 4.398-.656 6.58-.214 4.374-.257 8.694.14 12.825-.017-.98-.033-1.853-.019-2.697l.124-2.528c.051-.869.041-1.79.123-2.845.075-1.055.144-2.245.204-3.653.42-7.094 1.688-14.118 3.659-20.915 1.879-6.826 4.095-12.837 7.396-18.284l.86-1.638c.582-1.1 1.066-2.184 1.681-3.29.701-1.213 1.372-2.121 1.916-2.953.56-.824 1.034-1.547 1.577-2.25l3.953-5.456c.08-.01-.024.2-.215.508a31.094 31.094 0 0 1 2.103-2.673c.811-.94 1.598-1.936 2.265-2.758.157-.008.309-.012.669-.27C104.972 5.316 116.4-2.73 129.28-7.803l2.864-1.116 2.899-.965 1.441-.481 1.46-.408 2.91-.809c1.664-.4 3.35-.806 5.069-1.17l2.616-.458c.88-.152 1.763-.322 2.667-.406 1.797-.216 3.365-.671 4.21-.783 4.69-.267 9.372-.213 14.868.232.426.008 1.09.046 1.86.088.77.044 1.65.066 2.503.144 1.001.226 2.07.449 3.19.667 6.838 1.06 13.45 2.957 19.74 5.479l-.008-.03 2.41.96 2.458 1.135c1.687.735 3.34 1.674 5.046 2.559.857.437 1.669.97 2.51 1.453.827.51 1.692.96 2.491 1.516 1.62 1.076 3.26 2.106 4.773 3.255a107.268 107.268 0 0 1 7.086 5.581c.05.045.101.087.15.131l.046.041 1.564 1.42 1.497 1.493 1.497 1.494c.496.502.956 1.038 1.436 1.556-.232-.376-.223-.527-.215-.677-.74-.708-1.615-1.547-2.479-2.372 1.442 1.312 2.7 2.498 3.733 3.467.398.508.833 1.009 1.246 1.555l1.273 1.681 1.354 1.75 1.347 1.88c2.39 3.047 4.5 6.307 6.503 9.63.928 1.706 1.95 3.362 2.776 5.126l1.303 2.616 1.172 2.68c.337.573.206.024.248-.073 1.315 3.18 2.373 6.487 3.33 9.82a94.707 94.707 0 0 1 3.66 18.478c.241 1.48.344 2.976.558 4.459l-.132 3.139c-.001 1.184.06 2.368.01 3.555l-.137 3.57c-.017.806-.133 1.685-.2 2.64-.091.954-.138 1.983-.276 3.067l-.442 3.427c-.142 1.201-.415 2.436-.626 3.727a97.308 97.308 0 0 1-4.63 16.621c-.26.887-.458 1.596-.635 1.992-.673 1.611-1.391 3.171-2.085 4.708-.776 1.496-1.488 2.993-2.284 4.41a92.428 92.428 0 0 1-8.534 13.29c-.36.472-.697.95-1.06 1.393l-1.07 1.295c-.71.836-1.343 1.673-2.015 2.398-1.343 1.452-2.47 2.798-3.528 3.81-1.211 1.265-1.103 1.324-.264.715a37.652 37.652 0 0 0 1.726-1.355l2.279-2.055c.833-.727 1.63-1.547 2.4-2.32.76-.779 1.52-1.488 2.106-2.13 1.182-1.279 1.958-2.068 1.792-1.717-1.907 3.591-5.382 8.021-10.46 12.921-2.59 2.391-5.505 4.99-8.953 7.494-1.681 1.31-3.55 2.51-5.456 3.82-1.969 1.206-3.981 2.526-6.18 3.699-4.815 2.621 3.612-1.584 3.84-1.624a24.554 24.554 0 0 1-2.552 1.76c-1.587.845-3.16 1.716-4.804 2.441-.96.442-1.904.918-2.876 1.33l-2.93 1.205 1.55-.61c3.17-1.26 6.132-2.743 8.806-4.21-1.005.607-2.104 1.31-3.309 1.945-1.291.668-2.628 1.398-3.969 2.05l-3.892 1.81c13.923-5.058 26.717-13.428 36.846-24.34 5.07-5.438 9.593-11.413 13.28-17.876a100.818 100.818 0 0 0 8.898-20.398c-3.386 10.66-8.665 20.455-15.01 28.735 11.534-15.575 18.412-34.67 19.324-54.364-.002 1.086-.109 2.167-.18 3.248-.09 1.081-.133 2.167-.26 3.245-.275 2.152-.473 4.317-.887 6.451-.67 4.294-1.757 8.515-2.987 12.685 2.428-7.538 3.879-15.486 4.45-23.48.595-7.999.099-16.047-1.135-23.846 2.12 10.33 2.47 22.036.665 33.603 1.269-7.46 1.59-15.151 1.103-22.776-.11-2.913-.453-5.805-.735-8.483-.405-2.658-.71-5.112-1.103-7.098 1.552 7.329 2.164 13.58 2.462 19.472-.287-12.86-2.95-25.887-8.18-38.126 2.854 6.647 5.198 13.797 6.629 21.149 1.438 7.343 2.036 14.856 1.696 22.084-.016-.846.02-1.691-.03-2.54l-.115-2.567c.308 11.649-1.486 23.194-5.042 34.052-1.784 5.428-3.988 10.703-6.656 15.722a102.554 102.554 0 0 1-9.19 14.296c3.943-4.605 8.107-11.116 11.43-18.267 3.307-7.167 5.763-14.917 7.452-21.686-2.485 12.155-7.416 24.15-14.57 34.861-7.136 10.72-16.482 20.146-27.295 27.38-10.801 7.256-23.055 12.279-35.63 14.76a101.573 101.573 0 0 1-18.958 1.942 101.417 101.417 0 0 1-18.639-1.626l3.226.613c1.076.204 2.167.316 3.25.477 2.164.348 4.353.48 6.534.68 4.373.246 8.77.329 13.152-.005 4.39-.233 8.752-.888 13.094-1.688 2.154-.49 4.333-.89 6.46-1.518 1.067-.299 2.147-.56 3.207-.891l3.173-1.029c-1.602.496-3.288 1.153-5.088 1.635l-2.256.664a98.529 98.529 0 0 0 13.86-4.827 96.046 96.046 0 0 0 6.067-2.904 103.769 103.769 0 0 1-11.502 5.23 105.652 105.652 0 0 1-23.255 5.779c-1.192.189-2.278.248-3.252.35l-2.607.257c-1.534.122-2.667.176-3.459.263-1.586.158-1.811.305-1.18.427.63.12 2.116.217 3.944.269a73.259 73.259 0 0 0 5.948-.288c19.752-2.026 37.887-9.777 52.42-21.382 14.541-11.607 25.68-27.025 31.887-44.52.39-1.016.69-2.064 1.013-3.103.315-1.042.663-2.074.947-3.126.527-2.115 1.151-4.206 1.555-6.353l.664-3.205.523-3.233.259-1.618.185-1.629.367-3.257c.75-8.712.453-17.517-.872-26.157-.709-4.89-1.954-10.694-3.559-15.865l-1.235-3.74c-.43-1.189-.885-2.31-1.291-3.364l-.598-1.52-.613-1.364-1.053-2.28c-3.365-6.828-7.593-13.339-12.543-19.395-4.944-6.059-10.624-11.668-17.028-16.553l-2.41-1.829-2.498-1.726-1.252-.866-1.291-.811-2.595-1.62c-3.538-2.043-7.161-4.014-10.981-5.648-3.78-1.715-7.737-3.108-11.764-4.353-2.034-.558-4.06-1.181-6.145-1.61-1.04-.224-2.07-.497-3.121-.685l-3.161-.559c-7.558-1.33-15.42-1.647-23.275-1.056-7.85.606-15.734 2.096-23.294 4.669l-2.829.98c-.945.319-1.857.732-2.788 1.094-.921.386-1.863.723-2.767 1.148l-2.718 1.26c-.915.403-1.798.867-2.68 1.336l-2.65 1.392-2.58 1.516c-.858.507-1.724 1.002-2.546 1.566l-2.495 1.64c-.84.534-1.617 1.158-2.428 1.73-.795.596-1.62 1.15-2.39 1.777l-2.315 1.864c-.783.607-1.522 1.265-2.258 1.924l-2.215 1.965-2.116 2.06c-.704.686-1.416 1.365-2.072 2.095-5.402 5.688-10.147 11.894-14.028 18.46a106.845 106.845 0 0 0-9.305 20.358c-4.697 13.871-6.045 27.939-5.418 40.645-.135-5.23-.158-12.732.809-20.136zm151.522 97.106a103.934 103.934 0 0 0 9.41-6.86c-3.048 2.511-6.181 4.83-9.41 6.86zm43.178-58.279c-.32.967-.592 1.923-.947 2.835L258.68 114l-.5 1.34-.551 1.32a116.531 116.531 0 0 0-1.07 2.686 104.471 104.471 0 0 1-7.072 14.333c-2.707 4.59-5.844 8.89-9.196 12.926-1.656 2.039-3.46 3.93-5.233 5.82l-2.77 2.71c-.91.91-1.906 1.721-2.848 2.58-.79.687-1.587 1.36-2.389 2.02a97.373 97.373 0 0 0 8.477-7.85 96.42 96.42 0 0 1-12.55 10.938c-1.112.776-2.186 1.607-3.341 2.337l-3.487 2.22-3.682 2.093c-1.253.696-2.576 1.315-3.902 1.992a79.67 79.67 0 0 1 2.883-1.62c1.096-.608 2.246-1.327 3.37-1.985 1.13-.646 2.16-1.354 3.014-1.947.854-.592 1.524-1.084 1.873-1.402-.498.338-1.005.663-1.51.992a99.286 99.286 0 0 0 1.619-1.09c-.023.025-.07.064-.109.098 11.737-8.016 21.736-18.549 29.228-30.557 7.525-11.998 12.421-25.532 14.45-39.296-.44 5.52-1.45 9.929-2.73 13.797zm-7.144-70.163zm-9.07-13.633a99.17 99.17 0 0 1 8.346 15.408c.268.59.522 1.188.772 1.787 5.328 13.049 7.752 27.047 7.397 40.836.09-4.563-.213-9.123-.718-13.646-.573-5.21-1.63-10.36-3.032-15.396-2.75-10.1-7.218-19.672-12.889-28.399.52.72 1.07 1.499 1.637 2.326a35.243 35.243 0 0 1 1.707 2.644l-.685-1.19-.74-1.16-1.479-2.314c-1.007-1.529-2.099-3.002-3.15-4.5-1.14-1.433-2.221-2.912-3.408-4.307-.897-1.023-1.757-2.08-2.668-3.09 3.213 3.387 6.229 7.02 8.91 11zm-75.42-43.422c1.576.084 3.154.237 4.732.355 1.293.109 2.579.3 3.852.444.382.016.786.042 1.293.099.505.07 1.11.2 1.899.38 5.872.979 11.23 2.45 15.032 3.97 7.298 2.763 14.089 6.2 20.248 10.17 6.162 3.96 11.691 8.467 16.369 13.388 2.156 2.34 1.527 1.83.338.694l1.784 1.894c-.79-.788-1.566-1.587-2.368-2.358l-2.47-2.244c.6.526 2.059 1.786 3.054 2.708-7.933-8.094-17.206-14.815-27.243-19.759-10.045-4.942-20.862-7.994-31.674-9.213 1.737.193 2.59.236 3.401.258-1.165-.136-2.333-.323-3.515-.43-1.588-.105-3.173-.246-4.749-.324l-4.68-.11c1.55-.001 3.12.041 4.698.078z"/><path xmlns="http://www.w3.org/2000/svg" d="m189.479 178.288.457-.134c-.479.128-.95.27-1.432.393.326-.082.654-.161.975-.26zm47.756-41.377c4.547-5.998 8.565-13.165 11.13-19.34l-.031.007c-6.508 15.376-17.063 28.622-30.234 38.375a170.835 170.835 0 0 0 6.89-5.049c2.897-3.028 7.745-7.951 12.245-13.993zm-134.282 17.925c7.7 6.884 16.986 12.875 27.322 16.91 4.03 1.517 8.143 2.846 12.35 3.783 2.087.539 4.218.871 6.333 1.268 1.06.187 2.133.292 3.198.442 1.067.138 2.132.295 3.207.357-4.852-.537-9.668-1.343-14.356-2.62-4.686-1.271-9.279-2.844-13.71-4.776a104.571 104.571 0 0 1-12.77-6.779c-4.064-2.585-7.918-5.472-11.574-8.585zm95.045 12.272-2.383.935-2.432.812c-1.61.58-3.272 1.013-4.928 1.474 1.665-.419 3.34-.81 4.964-1.346l2.451-.75 2.394-.875c-.092-.047-.637.06-.066-.25zm-28.123 6.107c-1.245.106-2.497.097-3.751.11-1.254.015-2.51.041-3.767-.041l1.692.159c.517.033.983.073 1.39.12 1.483-.126 2.955-.161 4.436-.348zm-49.646-11.548c1.44.845 2.968 1.589 4.485 2.41.38.208 1.07.445 1.934.76-1.848-.793-3.618-1.776-5.418-2.689-.89-.473-1.749-1.004-2.622-1.498-.872-.498-1.74-.995-2.565-1.551l1.006.672 1.049.627 2.13 1.27z"/></g><path d="M124.074 57.62c0 4.521 2.11 9.496 8.441 13.867 1.056.754-1.96 1.357-3.617.15-3.317-2.41-7.387-8.44-7.387-14.922 0-9.648 6.784-19.898 18.24-27.887C155.579 17.673 172.763 13 185.425 13 202.46 13 221 22.647 221 50.987c0 22.158-11.456 51.703-31.655 72.506-17.034 17.787-41.303 29.394-57.282 29.394S109 144.747 109 133.29c0-14.773 9.044-34.821 33.163-51.704 2.11-1.357 4.07-2.714 6.18-3.92 5.276-20.5 10.703-39.343 11.758-42.056 1.658-4.824 3.015-.904 1.96 3.015-3.317 11.155-6.934 24.269-10.25 37.082 17.334-9.195 31.202-9.195 32.71-9.044 1.809.15 1.055 1.658-3.316 1.96-3.92.3-15.828 2.562-30.902 12.36-4.07 15.828-7.839 30.75-9.949 40.85-1.055 4.975-2.261 1.056-1.96-.753 1.508-9.497 4.824-23.666 8.442-37.685l-3.015 2.26c-22.008 16.884-32.56 36.63-32.56 47.635 0 7.838 6.482 14.622 21.104 14.622 16.28 0 43.413-13.869 54.417-26.832 18.993-21.707 30.299-46.579 30.299-72.506 0-18.843-11.155-31.806-32.259-31.806-12.963 0-29.846 6.33-42.207 14.621-12.511 8.291-18.541 18.692-18.541 26.23zM0 233.69v-30.283h9.98c9.317 0 14.051 6.254 14.051 15.12 0 8.931-4.733 15.164-14.05 15.164H0zm4.262-3.854H9.81c6.618 0 9.767-4.39 9.767-11.31 0-6.874-3.149-11.286-9.767-11.286H4.262v22.595zm50.552-22.596H42.69v9.424h10.687v3.812H42.691v9.36h12.123v3.855H38.343v-30.284h16.47v3.834zm34.724-3.833h4.24v30.284h-4.604l-15.828-24.03v24.03h-4.22v-30.284h4.562l15.849 23.923v-23.923zm36.671 0v3.833h-7.667v26.451h-4.22v-26.45h-7.688v-3.834h19.576zm32.454 30.284-2.528-7.068H142.6l-2.527 7.068h-4.433l11.158-30.284h5.14l11.16 30.284h-4.434zm-14.735-10.795h10.88l-5.44-15.27zm36.308 6.94h10.345v3.855h-14.606v-30.284h4.262v26.43zm54.756 4.262c-8.589 0-15.143-5.89-15.143-15.57 0-9.638 6.554-15.528 15.143-15.528 6.125 0 11.201 3.041 13.536 8.246l-3.941 1.563c-1.756-3.705-5.333-5.782-9.595-5.782-6.083 0-10.902 4.197-10.902 11.5 0 7.347 4.82 11.544 10.902 11.544 4.262 0 7.839-2.077 9.595-5.783l3.94 1.585c-2.334 5.183-7.41 8.225-13.535 8.225zm46.588-.407-2.527-7.068h-13.536l-2.528 7.068h-4.433l11.159-30.284h5.14l11.159 30.284h-4.434zm-14.735-10.795h10.88l-5.44-15.27zm48.389 10.795-7.84-13.622h-4.24v13.622h-4.262v-30.284h10.195c6.34 0 9.23 3.876 9.23 8.631 0 4.22-2.484 7.153-6.639 7.86l8.546 13.793h-4.99zm-12.08-26.6v9.723h5.354c3.94 0 5.718-1.97 5.718-4.84 0-2.828-1.777-4.884-5.718-4.884h-5.354zm46.846.15h-12.123v9.423h10.688v3.812h-10.688v9.36H350v3.855h-16.47v-30.284H350v3.834z" fill="#111"/></svg>